<svg width="17" height="16" viewBox="0 0 17 16" fill="none" xmlns="http://www.w3.org/2000/svg">
<path d="M4.09176 15.6915C4.28702 15.8868 4.6036 15.8868 4.79887 15.6915L7.98085 12.5095C8.17611 12.3142 8.17611 11.9977 7.98085 11.8024C7.78558 11.6071 7.469 11.6071 7.27374 11.8024L4.44531 14.6308L1.61689 11.8024C1.42162 11.6071 1.10504 11.6071 0.909779 11.8024C0.714516 11.9977 0.714516 12.3142 0.909779 12.5095L4.09176 15.6915ZM3.94531 1.34839L3.94531 15.3379H4.94531L4.94531 1.34839H3.94531Z" fill="#4E4E4E"/>
<path d="M13.1153 0.994851C12.92 0.799589 12.6034 0.799589 12.4082 0.994851L9.22618 4.17683C9.03092 4.37209 9.03092 4.68868 9.22618 4.88394C9.42145 5.0792 9.73803 5.0792 9.93329 4.88394L12.7617 2.05551L15.5901 4.88394C15.7854 5.0792 16.102 5.0792 16.2973 4.88394C16.4925 4.68868 16.4925 4.37209 16.2973 4.17683L13.1153 0.994851ZM13.2617 15.338L13.2617 1.3484H12.2617L12.2617 15.338H13.2617Z" fill="#4E4E4E"/>
</svg>
